<svg width="65" height="63" viewBox="0 0 65 63" fill="none" xmlns="http://www.w3.org/2000/svg">
<g clip-path="url(#clip0_14_3272)">
<path d="M26.9101 29.5602H19.1807C18.3981 29.5595 17.6478 29.2635 17.0943 28.7371C16.5409 28.2107 16.2295 27.497 16.2285 26.7524V19.4903C16.2295 18.7457 16.5409 18.032 17.0943 17.5056C17.6478 16.9792 18.3981 16.6832 19.1807 16.6825H26.9101C27.6926 16.6834 28.4427 16.9795 28.9959 17.5059C29.5492 18.0323 29.8605 18.7459 29.8614 19.4903V26.7524C29.8605 27.4968 29.5492 28.2105 28.9959 28.7368C28.4427 29.2632 27.6926 29.5593 26.9101 29.5602ZM19.1807 18.8571C19.0042 18.8573 18.835 18.924 18.71 19.0427C18.5851 19.1614 18.5147 19.3223 18.5142 19.4903V26.7524C18.5147 26.9204 18.5851 27.0813 18.71 27.2C18.835 27.3187 19.0042 27.3854 19.1807 27.3857H26.9101C27.0866 27.3854 27.2557 27.3186 27.3805 27.1999C27.5053 27.0812 27.5755 26.9203 27.5757 26.7524V19.4903C27.5755 19.3224 27.5053 19.1615 27.3805 19.0428C27.2557 18.9241 27.0866 18.8573 26.9101 18.8571H19.1807Z" fill="#524F5E"/>
<path d="M26.9477 46.6914H19.2183C18.4357 46.6904 17.6853 46.3942 17.1319 45.8677C16.5784 45.3412 16.2671 44.6273 16.2661 43.8827V36.6214C16.2671 35.8769 16.5785 35.1631 17.1319 34.6367C17.6854 34.1104 18.4357 33.8143 19.2183 33.8137H26.9477C27.7298 33.815 28.4795 34.1114 29.0324 34.6377C29.5852 35.164 29.8962 35.8774 29.8972 36.6214V43.8827C29.8965 44.627 29.5856 45.3405 29.0327 45.867C28.4798 46.3935 27.73 46.69 26.9477 46.6914ZM19.2183 35.9882C19.0418 35.9884 18.8726 36.0552 18.7476 36.1739C18.6227 36.2926 18.5523 36.4535 18.5518 36.6214V43.8827C18.5521 44.0508 18.6224 44.212 18.7473 44.3308C18.8723 44.4497 19.0416 44.5166 19.2183 44.5168H26.9477C27.1243 44.5164 27.2934 44.4494 27.4182 44.3305C27.5429 44.2117 27.6131 44.0507 27.6133 43.8827V36.6214C27.6131 36.4536 27.5429 36.2926 27.4181 36.1739C27.2933 36.0552 27.1242 35.9884 26.9477 35.9882H19.2183Z" fill="#524F5E"/>
<path d="M44.8203 46.6914H37.0909C36.3082 46.6904 35.5579 46.3942 35.0044 45.8677C34.451 45.3412 34.1396 44.6273 34.1387 43.8827V36.6214C34.1396 35.8769 34.451 35.1631 35.0045 34.6367C35.558 34.1104 36.3083 33.8143 37.0909 33.8137H44.8203C45.6027 33.8146 46.3528 34.1107 46.9061 34.6371C47.4594 35.1634 47.7706 35.877 47.7716 36.6214V43.8827C47.7709 44.6273 47.4597 45.3411 46.9064 45.8677C46.3531 46.3942 45.6029 46.6904 44.8203 46.6914ZM37.0909 35.9926C36.9144 35.9928 36.7451 36.0595 36.6202 36.1782C36.4953 36.2969 36.4249 36.4578 36.4244 36.6258V43.8871C36.4246 44.0552 36.4949 44.2163 36.6199 44.3352C36.7448 44.454 36.9142 44.5209 37.0909 44.5212H44.8203C44.9968 44.5207 45.166 44.4537 45.2907 44.3349C45.4155 44.216 45.4856 44.055 45.4859 43.8871V36.6214C45.4856 36.4536 45.4154 36.2926 45.2907 36.1739C45.1659 36.0552 44.9967 35.9884 44.8203 35.9882L37.0909 35.9926Z" fill="#524F5E"/>
<path d="M40.9601 29.5602C39.6241 29.5508 38.321 29.1653 37.215 28.4523C36.1091 27.7393 35.2497 26.7307 34.7453 25.5538C34.2409 24.3768 34.1141 23.0842 34.3808 21.8387C34.6475 20.5933 35.2958 19.4509 36.244 18.5555C37.1922 17.6601 38.3978 17.0518 39.7088 16.8073C41.0198 16.5627 42.3776 16.693 43.611 17.1815C44.8443 17.6701 45.898 18.4951 46.6392 19.5525C47.3805 20.61 47.776 21.8525 47.7761 23.1235C47.7671 24.8363 47.0445 26.4758 45.7668 27.6825C44.489 28.8891 42.7604 29.5644 40.9601 29.5602ZM40.9601 18.8614C40.0762 18.8708 39.215 19.1288 38.485 19.6028C37.7549 20.0769 37.1885 20.7458 36.8571 21.5254C36.5257 22.305 36.4441 23.1604 36.6226 23.984C36.8011 24.8076 37.2317 25.5625 37.8602 26.1538C38.4887 26.7451 39.287 27.1463 40.1547 27.3069C41.0223 27.4675 41.9205 27.3804 42.7362 27.0564C43.5519 26.7325 44.2486 26.1862 44.7387 25.4864C45.2288 24.7866 45.4903 23.9645 45.4903 23.1235C45.4831 21.9866 45.002 20.8988 44.1527 20.0989C43.3033 19.2991 42.1551 18.8524 40.9601 18.8571V18.8614Z" fill="#524F5E"/>
</g>
<defs>
<clipPath id="clip0_14_3272">
<rect width="32" height="30.4438" fill="white" transform="translate(16 16.465)"/>
</clipPath>
</defs>
</svg>
