<svg width="74" height="57" viewBox="0 0 74 57" fill="none" xmlns="http://www.w3.org/2000/svg">
<path d="M48.3512 36.7968H26.1358C25.3993 36.7968 24.693 36.4737 24.1722 35.8985C23.6515 35.3233 23.3589 34.5432 23.3589 33.7297V17.3719C23.3589 16.5585 23.6515 15.7783 24.1722 15.2031C24.693 14.6279 25.3993 14.3048 26.1358 14.3048H48.3512C49.0877 14.3048 49.794 14.6279 50.3148 15.2031C50.8356 15.7783 51.1281 16.5585 51.1281 17.3719V33.7297C51.1281 34.5432 50.8356 35.3233 50.3148 35.8985C49.794 36.4737 49.0877 36.7968 48.3512 36.7968ZM26.1358 16.3495C25.8903 16.3495 25.6549 16.4573 25.4813 16.649C25.3077 16.8407 25.2102 17.1008 25.2102 17.3719V33.7297C25.2102 34.0009 25.3077 34.2609 25.4813 34.4527C25.6549 34.6444 25.8903 34.7521 26.1358 34.7521H48.3512C48.5967 34.7521 48.8321 34.6444 49.0057 34.4527C49.1793 34.2609 49.2768 34.0009 49.2768 33.7297V17.3719C49.2768 17.1008 49.1793 16.8407 49.0057 16.649C48.8321 16.4573 48.5967 16.3495 48.3512 16.3495H26.1358Z" fill="#524F5E"/>
<path d="M41.8717 42.931H32.6153C32.4802 42.9329 32.3464 42.9021 32.2232 42.8408C32.1 42.7796 31.9905 42.6892 31.9023 42.5762C31.8141 42.4632 31.7493 42.3302 31.7126 42.1866C31.6759 42.043 31.668 41.8923 31.6897 41.745L32.6153 35.6108C32.6508 35.3689 32.7638 35.1491 32.9337 34.9915C33.1036 34.8339 33.3191 34.7489 33.541 34.752H40.9461C41.168 34.7489 41.3835 34.8339 41.5534 34.9915C41.7233 35.1491 41.8362 35.3689 41.8717 35.6108L42.7974 41.745C42.819 41.8923 42.8112 42.043 42.7744 42.1866C42.7377 42.3302 42.673 42.4632 42.5848 42.5762C42.4965 42.6892 42.387 42.7796 42.2638 42.8408C42.1406 42.9021 42.0068 42.9329 41.8717 42.931ZM33.7076 40.8862H40.7795L40.1593 36.7968H34.3277L33.7076 40.8862Z" fill="#524F5E"/>
<path d="M44.6485 42.931H29.8382C29.5927 42.931 29.3573 42.8232 29.1837 42.6315C29.0101 42.4398 28.9126 42.1797 28.9126 41.9086C28.9126 41.6374 29.0101 41.3774 29.1837 41.1857C29.3573 40.9939 29.5927 40.8862 29.8382 40.8862H44.6485C44.894 40.8862 45.1294 40.9939 45.303 41.1857C45.4766 41.3774 45.5741 41.6374 45.5741 41.9086C45.5741 42.1797 45.4766 42.4398 45.303 42.6315C45.1294 42.8232 44.894 42.931 44.6485 42.931Z" fill="#524F5E"/>
<path d="M50.2025 31.685H24.2845C24.039 31.685 23.8036 31.5773 23.63 31.3855C23.4564 31.1938 23.3589 30.9338 23.3589 30.6626C23.3589 30.3915 23.4564 30.1314 23.63 29.9397C23.8036 29.748 24.039 29.6403 24.2845 29.6403H50.2025C50.448 29.6403 50.6834 29.748 50.857 29.9397C51.0306 30.1314 51.1281 30.3915 51.1281 30.6626C51.1281 30.9338 51.0306 31.1938 50.857 31.3855C50.6834 31.5773 50.448 31.685 50.2025 31.685Z" fill="#524F5E"/>
</svg>
