<svg width="65" height="63" viewBox="0 0 65 63" fill="none" xmlns="http://www.w3.org/2000/svg">
<path d="M46.5765 28.7378C46.3617 28.7362 46.1527 28.6572 45.9788 28.5119L32.1501 17.1193L18.3214 28.5119C18.0996 28.6635 17.8365 28.7137 17.5842 28.6524C17.3319 28.5912 17.1086 28.423 16.9585 28.181C16.8084 27.9391 16.7423 27.641 16.7734 27.3456C16.8044 27.0502 16.9303 26.7789 17.1261 26.5854L31.5525 14.6933C31.727 14.5499 31.9359 14.4728 32.1501 14.4728C32.3643 14.4728 32.5733 14.5499 32.7478 14.6933L47.1741 26.5854C47.3501 26.7324 47.4812 26.9397 47.549 27.1779C47.6167 27.4161 47.6174 27.6728 47.5512 27.9115C47.4849 28.1503 47.3549 28.3587 47.1799 28.5071C47.0049 28.6555 46.7937 28.7362 46.5765 28.7378Z" fill="#524F5E"/>
<path d="M20.8151 21.6026C20.5418 21.6026 20.2797 21.4773 20.0865 21.2543C19.8932 21.0312 19.7847 20.7288 19.7847 20.4134V15.6565C19.7847 15.3411 19.8932 15.0386 20.0865 14.8156C20.2797 14.5926 20.5418 14.4673 20.8151 14.4673H24.9369C25.2102 14.4673 25.4723 14.5926 25.6656 14.8156C25.8588 15.0386 25.9674 15.3411 25.9674 15.6565C25.9674 15.9719 25.8588 16.2744 25.6656 16.4974C25.4723 16.7204 25.2102 16.8457 24.9369 16.8457H21.8456V20.4134C21.8456 20.7288 21.737 21.0312 21.5438 21.2543C21.3505 21.4773 21.0884 21.6026 20.8151 21.6026Z" fill="#524F5E"/>
<path d="M41.4242 45.3868H36.2719C35.9986 45.3868 35.7365 45.2615 35.5433 45.0385C35.35 44.8154 35.2415 44.5129 35.2415 44.1976V35.8731H29.0587V44.1976C29.0587 44.5129 28.9502 44.8154 28.7569 45.0385C28.5637 45.2615 28.3016 45.3868 28.0283 45.3868H22.876C22.0561 45.3868 21.2698 45.0109 20.6901 44.3418C20.1104 43.6728 19.7847 42.7653 19.7847 41.8191V29.927C19.7847 29.6116 19.8932 29.3092 20.0865 29.0861C20.2797 28.8631 20.5418 28.7378 20.8151 28.7378C21.0884 28.7378 21.3505 28.8631 21.5438 29.0861C21.737 29.3092 21.8456 29.6116 21.8456 29.927V41.8191C21.8456 42.1345 21.9541 42.437 22.1474 42.66C22.3406 42.8831 22.6027 43.0083 22.876 43.0083H26.9978V34.6839C26.9978 34.3685 27.1064 34.066 27.2997 33.843C27.4929 33.62 27.755 33.4947 28.0283 33.4947H36.2719C36.5452 33.4947 36.8073 33.62 37.0006 33.843C37.1938 34.066 37.3024 34.3685 37.3024 34.6839V43.0083H41.4242C41.6975 43.0083 41.9596 42.8831 42.1528 42.66C42.3461 42.437 42.4546 42.1345 42.4546 41.8191V29.927C42.4546 29.6116 42.5632 29.3092 42.7565 29.0861C42.9497 28.8631 43.2118 28.7378 43.4851 28.7378C43.7584 28.7378 44.0205 28.8631 44.2137 29.0861C44.407 29.3092 44.5155 29.6116 44.5155 29.927V41.8191C44.5155 42.7653 44.1898 43.6728 43.6101 44.3418C43.0304 45.0109 42.2441 45.3868 41.4242 45.3868Z" fill="#524F5E"/>
</svg>
