<svg width="66" height="53" viewBox="0 0 66 53" fill="none" xmlns="http://www.w3.org/2000/svg">
<path d="M15.6802 12.8646C16.9036 15.4751 18.2228 18.2989 19.5173 20.7983H54.9193C55.2313 18.6017 55.5186 15.5802 55.7441 12.8646H15.6802Z" fill="#AF8023"/>
<path d="M57.3816 4.88763H11.8833C12.3653 5.82683 14.1232 8.65367 14.6731 9.8153H55.9172C56.013 8.53936 57.3291 5.68162 57.3816 4.88763Z" fill="#766ED3"/>
<path d="M24.8872 28.9451C28.7583 29.9307 53.273 26.2697 54.2586 24.6261C54.3543 24.4685 54.4501 24.1719 54.5428 23.7734H20.667C22.2426 26.5817 23.7255 28.6486 24.8872 28.9451Z" fill="#F8DC25"/>
<path d="M64.0735 1.78273C60.5423 1.78273 59.2602 5.83917 58.6546 10.7267H55.9174H14.6733H13.0667C9.89388 5.13478 6.35337 0.726135 1.74082 0.726135C1.15074 0.726135 0.671875 1.205 0.671875 1.79508C0.671875 2.38517 1.15074 2.86403 1.74082 2.86403C5.028 2.86403 7.93826 6.29641 10.5859 10.7298H10.1936C9.60347 10.7298 9.12461 11.2086 9.12461 11.7987C9.12461 12.3888 9.60347 12.8677 10.1936 12.8677H11.8062C12.8937 14.8542 13.938 16.9519 14.9482 18.9786C15.2541 19.5965 15.5568 20.202 15.8596 20.8014H15.4796C14.8895 20.8014 14.4107 21.2802 14.4107 21.8703C14.4107 22.4604 14.8895 22.9393 15.4796 22.9393H16.9471C19.984 28.803 22.8881 33.292 26.6789 33.292C33.2594 33.292 46.9951 31.5032 54.1719 29.1089C48.9013 33.6535 38.5454 35.6894 30.4325 37.2805C22.5884 38.8221 18.8008 39.6625 18.4115 41.8992C18.291 42.5851 18.4733 43.2246 18.9367 43.7467C20.157 45.1277 23.2774 45.347 25.1156 45.347V46.6446C24.0652 47.0679 23.3206 48.0936 23.3206 49.2954C23.3206 50.8772 24.6027 52.1562 26.1815 52.1562C27.7632 52.1562 29.0423 50.8741 29.0423 49.2954C29.0423 48.0936 28.2977 47.0679 27.2473 46.6446V45.3223H50.8167V46.6446C49.7663 47.0679 49.0217 48.0936 49.0217 49.2954C49.0217 50.8772 50.3039 52.1562 51.8826 52.1562C53.4644 52.1562 54.7434 50.8741 54.7434 49.2954C54.7434 48.0936 53.9988 47.0679 52.9484 46.6446V45.3223H58.5311C59.1212 45.3223 59.6 44.8435 59.6 44.2534C59.6 43.6633 59.1212 43.1844 58.5311 43.1844H51.8826H26.1845C26.1815 43.1844 26.1814 43.1844 26.1784 43.1844C26.1753 43.1844 26.1753 43.1844 26.1722 43.1844H26.1289C23.2928 43.3234 20.7317 42.8106 20.503 42.2947C20.9881 41.3091 26.6819 40.1908 30.8403 39.3751C42.191 37.1476 57.6876 34.0953 59.5351 24.209C59.5475 24.1534 59.5599 24.0978 59.5691 24.0391C59.5753 24.0051 59.5846 23.9711 59.5907 23.9372C59.5907 23.931 59.5907 23.9279 59.5907 23.9217C59.6494 23.6097 59.7051 23.2853 59.7576 22.9362H60.6906C61.2807 22.9362 61.7595 22.4573 61.7595 21.8672C61.7595 21.2771 61.2807 20.7983 60.6906 20.7983H59.9986C60.1005 19.6768 60.1839 18.4256 60.2735 17.0322C60.3569 15.7161 60.4496 14.2826 60.5794 12.8646H61.327C61.9171 12.8646 62.396 12.3857 62.396 11.7956C62.396 11.2055 61.9171 10.7267 61.327 10.7267H60.8142C61.293 7.03479 62.1735 3.91754 64.0735 3.91754C64.6636 3.91754 65.1425 3.43867 65.1425 2.84859C65.1394 2.26159 64.6636 1.78273 64.0735 1.78273ZM19.3599 22.9362H20.6668H54.5426H57.595C57.5548 23.205 57.5085 23.4583 57.459 23.6962C57.4436 23.7889 57.422 23.8754 57.4034 23.965C57.2335 24.7188 57.0265 25.2873 56.767 25.5499C54.2923 28.0214 35.9781 31.1541 26.6727 31.1541C24.2351 31.151 21.7759 27.4715 19.3599 22.9362ZM58.1418 16.8963C58.0615 18.1537 57.975 19.5223 57.8545 20.7983H54.9226H19.5175H18.2477C17.7812 19.8807 17.3178 18.9508 16.8575 18.024C15.9955 16.2908 15.1274 14.5452 14.2346 12.8646H15.6773H55.7444H58.4291C58.3117 14.2023 58.2252 15.5648 58.1418 16.8963Z" fill="#435C6B"/>
</svg>
