<svg width="85" height="85" viewBox="0 0 85 85" fill="none" xmlns="http://www.w3.org/2000/svg">
<path d="M23.6807 31.8646C24.9041 34.4751 26.2233 37.2989 27.5178 39.7983H62.9198C63.2318 37.6017 63.5191 34.5802 63.7446 31.8646H23.6807Z" fill="#AF8023"/>
<path d="M65.3821 23.8876H19.8838C20.3657 24.8268 22.1236 27.6537 22.6736 28.8153H63.9177C64.0135 27.5394 65.3296 24.6816 65.3821 23.8876Z" fill="#766ED3"/>
<path d="M32.8872 47.9451C36.7583 48.9307 61.273 45.2697 62.2586 43.6261C62.3543 43.4685 62.4501 43.1719 62.5428 42.7734H28.667C30.2426 45.5817 31.7255 47.6486 32.8872 47.9451Z" fill="#F8DC25"/>
<path d="M72.0738 20.7827C68.5425 20.7827 67.2604 24.8392 66.6549 29.7267H63.9176H22.6735H21.067C17.8941 24.1348 14.3536 19.7261 9.74107 19.7261C9.15098 19.7261 8.67212 20.205 8.67212 20.7951C8.67212 21.3852 9.15098 21.864 9.74107 21.864C13.0282 21.864 15.9385 25.2964 18.5862 29.7298H18.1938C17.6037 29.7298 17.1249 30.2086 17.1249 30.7987C17.1249 31.3888 17.6037 31.8677 18.1938 31.8677H19.8065C20.894 33.8542 21.9382 35.9519 22.9485 37.9786C23.2543 38.5965 23.5571 39.202 23.8598 39.8014H23.4798C22.8898 39.8014 22.4109 40.2802 22.4109 40.8703C22.4109 41.4604 22.8898 41.9393 23.4798 41.9393H24.9473C27.9843 47.803 30.8883 52.292 34.6791 52.292C41.2596 52.292 54.9953 50.5032 62.1721 48.1089C56.9015 52.6535 46.5457 54.6894 38.4328 56.2805C30.5887 57.8221 26.801 58.6625 26.4117 60.8992C26.2912 61.5851 26.4735 62.2246 26.9369 62.7467C28.1573 64.1277 31.2776 64.347 33.1158 64.347V65.6446C32.0654 66.0679 31.3209 67.0936 31.3209 68.2954C31.3209 69.8772 32.603 71.1562 34.1817 71.1562C35.7635 71.1562 37.0425 69.8741 37.0425 68.2954C37.0425 67.0936 36.298 66.0679 35.2476 65.6446V64.3223H58.817V65.6446C57.7665 66.0679 57.022 67.0936 57.022 68.2954C57.022 69.8772 58.3041 71.1562 59.8828 71.1562C61.4646 71.1562 62.7436 69.8741 62.7436 68.2954C62.7436 67.0936 61.9991 66.0679 60.9487 65.6446V64.3223H66.5313C67.1214 64.3223 67.6003 63.8435 67.6003 63.2534C67.6003 62.6633 67.1214 62.1844 66.5313 62.1844H59.8828H34.1848C34.1817 62.1844 34.1817 62.1844 34.1786 62.1844C34.1755 62.1844 34.1755 62.1844 34.1724 62.1844H34.1292C31.2931 62.3234 28.7319 61.8106 28.5033 61.2947C28.9883 60.3091 34.6822 59.1908 38.8406 58.3751C50.1912 56.1476 65.6879 53.0953 67.5354 43.209C67.5477 43.1534 67.5601 43.0978 67.5694 43.0391C67.5756 43.0051 67.5848 42.9711 67.591 42.9372C67.591 42.931 67.591 42.9279 67.591 42.9217C67.6497 42.6097 67.7053 42.2853 67.7578 41.9362H68.6908C69.2809 41.9362 69.7598 41.4573 69.7598 40.8672C69.7598 40.2771 69.2809 39.7983 68.6908 39.7983H67.9988C68.1007 38.6768 68.1842 37.4256 68.2738 36.0322C68.3572 34.7161 68.4499 33.2826 68.5796 31.8646H69.3273C69.9173 31.8646 70.3962 31.3857 70.3962 30.7956C70.3962 30.2055 69.9173 29.7267 69.3273 29.7267H68.8144C69.2933 26.0348 70.1738 22.9175 72.0738 22.9175C72.6639 22.9175 73.1427 22.4387 73.1427 21.8486C73.1396 21.2616 72.6639 20.7827 72.0738 20.7827ZM27.3602 41.9362H28.667H62.5428H65.5952C65.555 42.205 65.5087 42.4583 65.4593 42.6962C65.4438 42.7889 65.4222 42.8754 65.4037 42.965C65.2337 43.7188 65.0268 44.2873 64.7672 44.5499C62.2926 47.0214 43.9783 50.1541 34.6729 50.1541C32.2353 50.151 29.7761 46.4715 27.3602 41.9362ZM66.142 35.8963C66.0617 37.1537 65.9752 38.5223 65.8547 39.7983H62.9228H27.5178H26.248C25.7815 38.8807 25.3181 37.9508 24.8577 37.024C23.9958 35.2908 23.1276 33.5452 22.2348 31.8646H23.6776H63.7446H66.4294C66.312 33.2023 66.2255 34.5648 66.142 35.8963Z" fill="#435C6B"/>
</svg>
