<svg width="380" height="380" viewBox="0 0 380 380" fill="none" xmlns="http://www.w3.org/2000/svg">
<path d="M190 368.125C288.376 368.125 368.125 288.376 368.125 190C368.125 91.6243 288.376 11.875 190 11.875C91.6243 11.875 11.875 91.6243 11.875 190C11.875 288.376 91.6243 368.125 190 368.125Z" fill="#4BC190"/>
<path opacity="0.3" d="M190 332.5C268.701 332.5 332.5 268.701 332.5 190C332.5 111.299 268.701 47.5 190 47.5C111.299 47.5 47.5 111.299 47.5 190C47.5 268.701 111.299 332.5 190 332.5Z" fill="#356CB6"/>
<path d="M293.906 243.438C290.757 243.438 287.736 242.186 285.509 239.959C283.282 237.732 282.031 234.712 282.031 231.562V100.938C281.186 91.3243 276.769 82.3767 269.653 75.8588C262.536 69.3408 253.236 65.7254 243.586 65.7254C233.936 65.7254 224.636 69.3408 217.519 75.8588C210.403 82.3767 205.986 91.3243 205.141 100.938L222.953 243.438C222.953 252.886 226.706 261.947 233.387 268.628C240.068 275.309 249.13 279.062 258.578 279.062C268.026 279.062 277.088 275.309 283.769 268.628C290.45 261.947 294.203 252.886 294.203 243.438H293.906Z" fill="#393C54"/>
<path d="M222.656 136.562C239.052 136.562 252.344 123.271 252.344 106.875C252.344 90.479 239.052 77.1875 222.656 77.1875C206.26 77.1875 192.969 90.479 192.969 106.875C192.969 123.271 206.26 136.562 222.656 136.562Z" fill="#F85565"/>
<path d="M187.031 83.125C210.187 83.125 232.395 92.3238 248.769 108.698C265.143 125.072 274.342 147.28 274.342 170.436V188.605C274.342 197.218 270.92 205.479 264.829 211.57C258.739 217.661 250.478 221.083 241.864 221.083H132.198C123.585 221.083 115.324 217.661 109.233 211.57C103.142 205.479 99.7202 197.218 99.7202 188.605V170.436C99.7202 147.28 108.919 125.072 125.293 108.698C141.667 92.3238 163.875 83.125 187.031 83.125Z" fill="#393C54"/>
<path d="M255.253 239.697C265.796 239.697 274.342 231.15 274.342 220.608C274.342 210.065 265.796 201.519 255.253 201.519C244.711 201.519 236.164 210.065 236.164 220.608C236.164 231.15 244.711 239.697 255.253 239.697Z" fill="#FBC0AA"/>
<path d="M190 368.125C224.843 368.165 258.923 357.921 287.969 338.675L280.072 316.587C278.028 310.856 274.271 305.891 269.312 302.365C264.352 298.84 258.429 296.923 252.344 296.875H121.867C115.742 296.874 109.766 298.768 104.759 302.297C99.7523 305.827 95.9598 310.818 93.9017 316.587L87.1626 335.469C117.218 356.77 153.161 368.184 190 368.125Z" fill="#F8DC25"/>
<path d="M246.169 296.875H127.894C129.219 311.644 136.022 325.384 146.966 335.39C157.91 345.396 172.202 350.945 187.031 350.945C201.86 350.945 216.152 345.396 227.096 335.39C238.04 325.384 244.844 311.644 246.169 296.875Z" fill="#F2BC0F"/>
<path d="M213.75 300.586C213.75 307.672 210.935 314.468 205.924 319.479C200.914 324.49 194.118 327.305 187.031 327.305C179.945 327.305 173.149 324.49 168.138 319.479C163.128 314.468 160.312 307.672 160.312 300.586C160.312 285.742 172.188 291.68 187.031 291.68C201.875 291.68 213.75 285.831 213.75 300.586Z" fill="white"/>
<path d="M187.031 260.508V301.328" stroke="#FBC0AA" stroke-width="12" stroke-linecap="round" stroke-linejoin="round"/>
<path d="M118.809 239.697C129.352 239.697 137.898 231.15 137.898 220.608C137.898 210.065 129.352 201.519 118.809 201.519C108.267 201.519 99.7202 210.065 99.7202 220.608C99.7202 231.15 108.267 239.697 118.809 239.697Z" fill="#FBC0AA"/>
<path d="M187.031 293.431C168.922 293.431 151.554 286.237 138.749 273.432C125.944 260.627 118.75 243.259 118.75 225.15V180.381C118.75 162.272 125.944 144.904 138.749 132.099C151.554 119.294 168.922 112.1 187.031 112.1C205.141 112.1 222.508 119.294 235.313 132.099C248.119 144.904 255.312 162.272 255.312 180.381V225.239C255.289 243.333 248.085 260.678 235.282 273.464C222.479 286.25 205.125 293.431 187.031 293.431Z" fill="#FFD8C9"/>
<path opacity="0.1" d="M133.06 151.406C137.289 140.881 144.46 131.795 153.715 125.236C162.97 118.676 173.918 114.92 185.25 114.416" stroke="white" stroke-width="3.68" stroke-miterlimit="10" stroke-linecap="round"/>
<path d="M263.684 174.622C263.689 164.371 261.636 154.223 257.649 144.779C253.662 135.335 247.822 126.786 240.473 119.639C233.124 112.492 224.416 106.892 214.864 103.17C205.312 99.4474 195.111 97.6789 184.864 97.9688C143.124 99.1266 110.378 134.425 110.378 176.195V188.07C110.366 190.014 110.749 191.941 111.504 193.732C112.26 195.523 113.371 197.142 114.772 198.491C115.969 199.668 117.329 200.667 118.809 201.459V190C118.809 186.851 120.061 183.83 122.288 181.603C124.515 179.376 127.535 178.125 130.684 178.125H146.656C147.21 178.129 147.753 177.978 148.225 177.69C148.697 177.401 149.079 176.986 149.328 176.492L154.375 166.25L159.481 176.492C159.73 176.986 160.112 177.401 160.584 177.69C161.057 177.978 161.6 178.129 162.153 178.125H243.438C246.587 178.125 249.607 179.376 251.834 181.603C254.061 183.83 255.313 186.851 255.313 190V201.548C256.793 200.756 258.153 199.757 259.35 198.58C260.751 197.231 261.862 195.612 262.618 193.821C263.373 192.03 263.756 190.103 263.744 188.159L263.684 174.622Z" fill="#515570"/>
<path d="M209.802 223.488C209.802 221.125 210.74 218.86 212.41 217.19C214.081 215.52 216.346 214.581 218.708 214.581C221.07 214.581 223.335 215.52 225.006 217.19C226.676 218.86 227.614 221.125 227.614 223.488" stroke="#515570" stroke-width="5" stroke-linecap="round" stroke-linejoin="round"/>
<path d="M185.547 230.078V241.953" stroke="#FBC0AA" stroke-width="10" stroke-linecap="round" stroke-linejoin="round"/>
<path opacity="0.2" d="M213.75 201.875H234.531" stroke="#515570" stroke-width="5" stroke-linecap="round" stroke-linejoin="round"/>
<path d="M163.281 223.488C163.281 221.125 162.343 218.86 160.673 217.19C159.002 215.52 156.737 214.581 154.375 214.581C152.013 214.581 149.748 215.52 148.077 217.19C146.407 218.86 145.469 221.125 145.469 223.488" stroke="#515570" stroke-width="5" stroke-linecap="round" stroke-linejoin="round"/>
<path opacity="0.2" d="M160.312 201.875H139.531" stroke="#515570" stroke-width="5" stroke-linecap="round" stroke-linejoin="round"/>
<path d="M209.445 255.312C209.838 255.335 210.222 255.436 210.576 255.608C210.93 255.78 211.246 256.021 211.505 256.317C211.765 256.613 211.963 256.957 212.089 257.33C212.214 257.703 212.264 258.097 212.236 258.489C211.501 264.665 208.526 270.357 203.876 274.487C199.225 278.617 193.221 280.898 187.002 280.898C180.782 280.898 174.778 278.617 170.128 274.487C165.477 270.357 162.502 264.665 161.767 258.489C161.739 258.092 161.791 257.693 161.92 257.316C162.049 256.94 162.253 256.593 162.519 256.297C162.785 256 163.107 255.76 163.468 255.591C163.828 255.422 164.219 255.327 164.617 255.312H209.445Z" fill="#393C54"/>
<path d="M172.188 275.827C176.527 279.01 181.768 280.727 187.15 280.727C192.532 280.727 197.773 279.01 202.113 275.827C198.906 270.631 193.473 270.156 187.031 270.156C180.589 270.156 175.156 270.631 172.188 275.827Z" fill="#F85565"/>
<path d="M201.875 261.25H172.188C171.456 261.209 170.741 261.022 170.084 260.699C169.426 260.375 168.841 259.924 168.361 259.37C167.882 258.816 167.519 258.171 167.294 257.474C167.069 256.777 166.987 256.042 167.052 255.312H207.13C207.195 256.052 207.109 256.796 206.876 257.501C206.644 258.205 206.271 258.855 205.779 259.411C205.287 259.966 204.688 260.416 204.016 260.732C203.345 261.048 202.617 261.225 201.875 261.25Z" fill="white"/>
</svg>
